<svg width="2207" height="1610" viewBox="0 0 2207 1610" fill="none" xmlns="http://www.w3.org/2000/svg">
<g filter="url(#filter0_d_1:3)">
<rect x="4" width="2199" height="1602" fill="white"/>
<path d="M1252 825.5C1262.55 825.5 1271.5 818.091 1271.5 808.5C1271.5 798.909 1262.55 791.5 1252 791.5C1241.45 791.5 1232.5 798.909 1232.5 808.5C1232.5 818.091 1241.45 825.5 1252 825.5Z" fill="#C2FF13" stroke="#E5E5E5" stroke-width="3"/>
<path d="M1307 839.5C1307 848.06 1298.72 855 1288.5 855C1278.28 855 1270 848.06 1270 839.5C1270 830.94 1278.28 824 1288.5 824C1298.72 824 1307 830.94 1307 839.5Z" fill="#E21212"/>
<g filter="url(#filter1_d_1:3)">
<path d="M1673.5 959.5H1058L1133.5 1079.5H1606L1673.5 959.5Z" fill="#E0DEDE"/>
<path d="M1673.5 959.5H1058L1133.5 1079.5H1606L1673.5 959.5Z" fill="black" fill-opacity="0.2"/>
<path fill-rule="evenodd" clip-rule="evenodd" d="M1156 161.637V389.82L1189.5 450L1156 726.5H1583L1546.5 450L1583 389.82V161.637H1156Z" fill="#E0DEDE"/>
<path fill-rule="evenodd" clip-rule="evenodd" d="M1156 161.637V389.82L1189.5 450L1156 726.5H1583L1546.5 450L1583 389.82V161.637H1156Z" fill="black" fill-opacity="0.2"/>
<path d="M1156 726.5H1133.5L1058 959.5H1673.5L1606 726.5H1583H1156Z" fill="#E0DEDE"/>
<path d="M1156 726.5H1133.5L1058 959.5H1673.5L1606 726.5H1583H1156Z" fill="black" fill-opacity="0.2"/>
<path d="M1156 161.637V389.82M1156 161.637H1583M1156 161.637V116M1156 389.82H1583M1156 389.82L1189.5 450M1583 389.82V161.637M1583 389.82L1546.5 450M1583 161.637V116M1189.5 450L1156 726.5M1189.5 450H1546.5M1546.5 450C1546.5 450 1568.75 618.52 1583 726.5M1546.5 450L1583 726.5M1156 726.5H1133.5L1058 959.5M1156 726.5H1583M1583 726.5C1591.98 726.5 1606 726.5 1606 726.5M1583 726.5H1606M1058 959.5H1673.5M1058 959.5L1133.5 1079.5H1606L1673.5 959.5M1673.5 959.5L1606 726.5" stroke="black" stroke-width="6"/>
</g>
<path d="M1252 825.5C1262.55 825.5 1271.5 818.091 1271.5 808.5C1271.5 798.909 1262.55 791.5 1252 791.5C1241.45 791.5 1232.5 798.909 1232.5 808.5C1232.5 818.091 1241.45 825.5 1252 825.5Z" fill="#C2FF13" stroke="#E5E5E5" stroke-width="3"/>
<path d="M1288.5 856.5C1299.29 856.5 1308.5 849.127 1308.5 839.5C1308.5 829.874 1299.29 822.5 1288.5 822.5C1277.71 822.5 1268.5 829.874 1268.5 839.5C1268.5 849.127 1277.71 856.5 1288.5 856.5Z" fill="#E21212" stroke="#E5E5E5" stroke-width="3"/>
<line x1="1431.5" y1="831" x2="1431.5" y2="891" stroke="black" stroke-width="3"/>
<path d="M1430 843.5C1445.24 843.5 1457.5 830.686 1457.5 815C1457.5 799.314 1445.24 786.5 1430 786.5C1414.76 786.5 1402.5 799.314 1402.5 815C1402.5 830.686 1414.76 843.5 1430 843.5Z" fill="#D95FCD" stroke="#E5E5E5" stroke-width="3"/>
<path d="M1494 825.5C1504.55 825.5 1513.5 818.091 1513.5 808.5C1513.5 798.909 1504.55 791.5 1494 791.5C1483.45 791.5 1474.5 798.909 1474.5 808.5C1474.5 818.091 1483.45 825.5 1494 825.5Z" fill="#C2FF13" stroke="#E5E5E5" stroke-width="3"/>
<path d="M1549 839.5C1549 848.06 1540.72 855 1530.5 855C1520.28 855 1512 848.06 1512 839.5C1512 830.94 1520.28 824 1530.5 824C1540.72 824 1549 830.94 1549 839.5Z" fill="#E21212"/>
<path d="M1567.5 887.5C1578.29 887.5 1587.5 880.127 1587.5 870.5C1587.5 860.874 1578.29 853.5 1567.5 853.5C1556.71 853.5 1547.5 860.874 1547.5 870.5C1547.5 880.127 1556.71 887.5 1567.5 887.5Z" fill="#C2FF13" stroke="#E5E5E5" stroke-width="3"/>
<path d="M1494 887.5C1504.55 887.5 1513.5 880.091 1513.5 870.5C1513.5 860.909 1504.55 853.5 1494 853.5C1483.45 853.5 1474.5 860.909 1474.5 870.5C1474.5 880.091 1483.45 887.5 1494 887.5Z" fill="#C2FF13" stroke="#E5E5E5" stroke-width="3"/>
<path d="M1567.5 828.5C1578.42 828.5 1587.5 820.334 1587.5 810C1587.5 799.666 1578.42 791.5 1567.5 791.5C1556.58 791.5 1547.5 799.666 1547.5 810C1547.5 820.334 1556.58 828.5 1567.5 828.5Z" fill="#C2FF13" stroke="#E5E5E5" stroke-width="3"/>
<path d="M1494 825.5C1504.55 825.5 1513.5 818.091 1513.5 808.5C1513.5 798.909 1504.55 791.5 1494 791.5C1483.45 791.5 1474.5 798.909 1474.5 808.5C1474.5 818.091 1483.45 825.5 1494 825.5Z" fill="#C2FF13" stroke="#E5E5E5" stroke-width="3"/>
<path d="M1530.5 856.5C1541.29 856.5 1550.5 849.127 1550.5 839.5C1550.5 829.874 1541.29 822.5 1530.5 822.5C1519.71 822.5 1510.5 829.874 1510.5 839.5C1510.5 849.127 1519.71 856.5 1530.5 856.5Z" fill="#E21212" stroke="#E5E5E5" stroke-width="3"/>
<rect x="1204" y="480" width="330" height="220" fill="#C4C4C4"/>
<rect x="1214.5" y="490.5" width="309" height="199" rx="20.5" fill="#1272E2" fill-opacity="0.51" stroke="black"/>
<path d="M1324.86 523.234H1323.09C1322.34 523.234 1321.8 523.044 1321.47 522.663C1321.13 522.272 1320.97 521.76 1320.97 521.125C1320.97 519.719 1322.02 519.016 1324.12 519.016C1326.09 519.016 1327.57 519.309 1328.57 519.895L1327.72 520.539C1327.04 520.227 1325.84 520.07 1324.12 520.07C1323.28 520.07 1322.71 520.163 1322.42 520.349C1322.13 520.534 1321.99 520.793 1321.99 521.125C1321.99 521.457 1322.07 521.716 1322.23 521.901C1322.38 522.087 1322.67 522.18 1323.09 522.18H1324.91C1326.23 522.18 1327.41 522.404 1328.47 522.854C1329.53 523.303 1330.41 523.918 1331.09 524.699C1331.77 525.471 1332.3 526.364 1332.66 527.38C1333.02 528.386 1333.2 529.465 1333.2 530.617C1333.2 531.555 1333.07 532.443 1332.8 533.283C1332.54 534.123 1332.14 534.895 1331.6 535.598C1331.08 536.301 1330.44 536.911 1329.68 537.429C1328.94 537.937 1328.05 538.332 1327.02 538.615C1325.99 538.908 1324.88 539.055 1323.68 539.055C1321.79 539.055 1320.03 538.767 1318.38 538.19C1316.73 537.624 1315.37 536.828 1314.27 535.803L1315.12 535.173C1316.12 536.071 1317.36 536.77 1318.86 537.268C1320.36 537.756 1321.97 538 1323.68 538C1325.02 538 1326.22 537.81 1327.3 537.429C1328.38 537.038 1329.27 536.506 1329.96 535.832C1330.67 535.158 1331.2 534.377 1331.57 533.488C1331.95 532.6 1332.14 531.643 1332.14 530.617C1332.14 529.26 1331.87 528.034 1331.32 526.94C1330.78 525.837 1329.94 524.943 1328.82 524.26C1327.71 523.576 1326.39 523.234 1324.86 523.234ZM1323.09 524.289H1324.76C1326.74 524.289 1328.29 524.895 1329.41 526.105C1330.53 527.316 1331.09 528.82 1331.09 530.617C1331.09 532.443 1330.44 533.957 1329.14 535.158C1327.84 536.35 1326.02 536.945 1323.68 536.945C1322.12 536.945 1320.66 536.73 1319.3 536.301C1317.94 535.871 1316.81 535.266 1315.91 534.484L1316.73 533.825C1317.54 534.479 1318.54 534.987 1319.75 535.349C1320.97 535.71 1322.28 535.891 1323.68 535.891C1325.74 535.891 1327.31 535.397 1328.39 534.411C1329.49 533.425 1330.04 532.16 1330.04 530.617C1330.04 529.094 1329.58 527.834 1328.66 526.838C1327.75 525.842 1326.45 525.344 1324.75 525.344H1323.09C1321.67 525.344 1320.6 524.953 1319.88 524.172C1319.17 523.391 1318.81 522.375 1318.81 521.125C1318.81 519.875 1319.25 518.859 1320.13 518.078C1321.02 517.297 1322.35 516.906 1324.12 516.906C1325.36 516.906 1326.51 517.053 1327.57 517.346C1328.64 517.629 1329.52 518.039 1330.21 518.576L1329.38 519.221C1328.16 518.381 1326.4 517.961 1324.12 517.961C1322.64 517.961 1321.56 518.254 1320.88 518.84C1320.21 519.416 1319.87 520.178 1319.87 521.125C1319.87 522.082 1320.12 522.849 1320.62 523.425C1321.12 524.001 1321.95 524.289 1323.09 524.289ZM1323.09 526.398H1324.7C1326.13 526.398 1327.2 526.794 1327.91 527.585C1328.62 528.376 1328.98 529.387 1328.98 530.617C1328.98 531.867 1328.54 532.883 1327.65 533.664C1326.77 534.445 1325.45 534.836 1323.68 534.836C1322.44 534.836 1321.28 534.694 1320.21 534.411C1319.14 534.118 1318.26 533.703 1317.57 533.166L1318.4 532.521C1319.62 533.361 1321.38 533.781 1323.68 533.781C1325.15 533.781 1326.23 533.493 1326.9 532.917C1327.58 532.331 1327.93 531.564 1327.93 530.617C1327.93 529.67 1327.67 528.908 1327.16 528.332C1326.66 527.746 1325.83 527.453 1324.69 527.453H1323.09C1321.09 527.453 1319.52 526.857 1318.39 525.666C1317.27 524.465 1316.71 522.951 1316.71 521.125C1316.71 519.299 1317.35 517.79 1318.65 516.599C1319.95 515.397 1321.77 514.797 1324.12 514.797C1325.68 514.797 1327.13 515.012 1328.48 515.441C1329.84 515.871 1330.97 516.477 1331.87 517.258L1331.05 517.917C1330.25 517.263 1329.24 516.755 1328.03 516.394C1326.82 516.032 1325.51 515.852 1324.12 515.852C1322.06 515.852 1320.48 516.345 1319.39 517.331C1318.3 518.317 1317.76 519.582 1317.76 521.125C1317.76 522.658 1318.22 523.923 1319.14 524.919C1320.05 525.905 1321.37 526.398 1323.09 526.398ZM1323.09 528.508H1324.7C1325.46 528.508 1326 528.703 1326.33 529.094C1326.66 529.484 1326.83 529.992 1326.83 530.617C1326.83 532.023 1325.78 532.727 1323.68 532.727C1321.7 532.727 1320.21 532.434 1319.21 531.848L1320.06 531.203C1320.74 531.516 1321.95 531.672 1323.68 531.672C1324.52 531.672 1325.08 531.579 1325.36 531.394C1325.66 531.208 1325.8 530.949 1325.8 530.617C1325.8 530.295 1325.72 530.041 1325.55 529.855C1325.4 529.66 1325.1 529.562 1324.67 529.562H1323.09C1321.74 529.562 1320.52 529.343 1319.43 528.903C1318.35 528.464 1317.45 527.858 1316.75 527.087C1316.06 526.315 1315.52 525.422 1315.15 524.406C1314.78 523.391 1314.6 522.297 1314.6 521.125C1314.6 520.188 1314.73 519.299 1314.99 518.459C1315.25 517.619 1315.65 516.848 1316.18 516.145C1316.71 515.441 1317.35 514.836 1318.1 514.328C1318.85 513.811 1319.74 513.41 1320.76 513.127C1321.8 512.834 1322.92 512.688 1324.12 512.688C1326 512.688 1327.76 512.976 1329.41 513.552C1331.05 514.118 1332.41 514.914 1333.51 515.939L1332.66 516.569C1331.66 515.671 1330.42 514.978 1328.92 514.489C1327.43 513.991 1325.83 513.742 1324.12 513.742C1322.78 513.742 1321.57 513.938 1320.48 514.328C1319.41 514.709 1318.52 515.236 1317.82 515.91C1317.12 516.584 1316.59 517.365 1316.21 518.254C1315.84 519.143 1315.65 520.1 1315.65 521.125C1315.65 522.502 1315.93 523.742 1316.49 524.846C1317.04 525.949 1317.89 526.838 1319.03 527.512C1320.18 528.176 1321.53 528.508 1323.09 528.508ZM1335.07 514.797V513.742H1350.89V514.797H1335.07ZM1335.07 516.906V515.852H1350.89V516.906H1335.07ZM1335.07 519.016V517.961H1350.89V519.016H1346.68V538H1345.62V519.016H1344.57V538H1343.51V519.016H1342.46V538H1341.4V519.016H1340.35V538H1339.29V519.016H1335.07ZM1363.77 530.881L1364.2 529.826H1367.8L1368.22 530.881H1363.77ZM1362.95 532.99L1363.36 531.936H1368.62L1369.07 532.99H1362.95ZM1362.13 535.1L1362.54 534.045H1369.45L1369.89 535.1H1362.13ZM1353.56 538H1352.42L1362.01 513.742H1363.16L1372.74 538H1371.61L1362.58 515.163L1353.56 538ZM1362.72 517.668L1363.32 519.016L1355.82 538H1354.69L1362.72 517.668ZM1363.89 520.451L1364.44 521.901L1358.1 538H1356.96L1363.89 520.451ZM1365 523.352L1365.56 524.831L1360.36 538H1359.23L1365 523.352ZM1379.55 538H1378.4L1368.82 513.742H1369.95L1379.55 538ZM1367.68 513.742L1377.28 538H1376.15L1366.55 513.742H1367.68ZM1365.41 513.742L1375.01 538H1373.86L1364.28 513.742H1365.41ZM1389.36 525.93H1395.72C1396.69 525.93 1397.5 525.617 1398.17 524.992C1398.84 524.367 1399.18 523.479 1399.18 522.326C1399.18 521.477 1398.82 520.715 1398.12 520.041C1397.42 519.357 1396.62 519.016 1395.72 519.016H1386.67V538H1385.61V517.961H1395.72C1396.91 517.961 1397.96 518.405 1398.87 519.294C1399.78 520.173 1400.23 521.184 1400.23 522.326C1400.23 523.732 1399.79 524.86 1398.91 525.71C1398.03 526.56 1396.97 526.984 1395.72 526.984H1389.36V525.93ZM1389.36 528.039H1395.72C1397.24 528.039 1398.55 527.507 1399.64 526.442C1400.74 525.368 1401.29 523.996 1401.29 522.326C1401.29 520.891 1400.72 519.631 1399.6 518.547C1398.49 517.453 1397.19 516.906 1395.72 516.906H1384.56V538H1383.5V515.852H1395.72C1396.88 515.852 1397.97 516.149 1398.99 516.745C1400.01 517.341 1400.83 518.142 1401.43 519.147C1402.04 520.144 1402.34 521.203 1402.34 522.326C1402.34 524.25 1401.69 525.861 1400.38 527.16C1399.08 528.449 1397.53 529.094 1395.72 529.094H1389.36V528.039ZM1389.36 530.148H1395.72C1397.09 530.148 1398.36 529.812 1399.53 529.138C1400.7 528.464 1401.64 527.526 1402.34 526.325C1403.04 525.114 1403.39 523.781 1403.39 522.326C1403.39 521.008 1403.04 519.772 1402.34 518.62C1401.65 517.458 1400.71 516.53 1399.53 515.837C1398.35 515.144 1397.08 514.797 1395.72 514.797H1382.45V538H1381.39V513.742H1395.72C1397.25 513.742 1398.69 514.138 1400.04 514.929C1401.39 515.71 1402.46 516.765 1403.25 518.093C1404.05 519.411 1404.45 520.822 1404.45 522.326C1404.45 524.064 1404.07 525.593 1403.32 526.911C1402.58 528.229 1401.57 529.26 1400.29 530.002L1403.01 538H1401.9L1399.29 530.5C1398.9 530.656 1398.6 530.764 1398.4 530.822L1400.85 538H1399.73L1397.34 531.071C1397.26 531.091 1396.94 531.125 1396.41 531.174L1398.68 538H1397.56L1395.32 531.203H1394.37L1396.51 538H1395.4L1393.24 531.203H1389.36V530.148ZM1388.78 538H1387.72V520.07H1395.72C1396.37 520.07 1396.93 520.295 1397.4 520.744C1397.88 521.184 1398.12 521.711 1398.12 522.326C1398.12 524.025 1397.32 524.875 1395.72 524.875H1389.36V523.82H1395.72C1396.14 523.82 1396.47 523.713 1396.7 523.498C1396.94 523.273 1397.07 522.883 1397.07 522.326C1397.07 521.984 1396.93 521.701 1396.67 521.477C1396.42 521.242 1396.1 521.125 1395.72 521.125H1388.78V538ZM1404.19 514.797V513.742H1420.01V514.797H1404.19ZM1404.19 516.906V515.852H1420.01V516.906H1404.19ZM1404.19 519.016V517.961H1420.01V519.016H1415.79V538H1414.73V519.016H1413.68V538H1412.62V519.016H1411.57V538H1410.51V519.016H1409.46V538H1408.4V519.016H1404.19ZM1336.89 561.797V560.742H1352.71V561.797H1336.89ZM1336.89 563.906V562.852H1352.71V563.906H1336.89ZM1336.89 566.016V564.961H1352.71V566.016H1348.49V585H1347.44V566.016H1346.38V585H1345.33V566.016H1344.27V585H1343.22V566.016H1342.16V585H1341.11V566.016H1336.89ZM1378.32 560.742H1379.37V585H1378.32V560.742ZM1355.11 560.742H1356.17V585H1355.11V560.742ZM1376.21 560.742H1377.26V585H1376.21V560.742ZM1374.1 560.742H1375.15V585H1374.1V560.742ZM1371.99 560.742H1373.04V585H1371.99V575.493H1362.5V585H1361.44V560.742H1362.5V570.22H1371.99V560.742ZM1359.33 560.742H1360.39V585H1359.33V560.742ZM1357.22 560.742H1358.28V585H1357.22V560.742ZM1371.99 574.438V573.384H1362.5V574.438H1371.99ZM1371.99 572.329V571.274H1362.5V572.329H1371.99ZM1387.43 585H1386.37V560.742H1387.43V585ZM1385.32 585H1384.26V560.742H1385.32V585ZM1383.21 585H1382.15V560.742H1383.21V585ZM1389.54 579.727H1400.76V580.781H1389.54V581.836H1400.76V582.891H1389.54V583.945H1400.76V585H1388.48V560.742H1400.76V561.797H1389.54V562.852H1400.76V563.906H1389.54V564.961H1400.76V566.016H1389.54V570.234H1395.29V571.289H1389.54V572.344H1395.29V573.398H1389.54V574.453H1395.29V575.508H1389.54V579.727ZM1337.65 619.329H1338.71V632H1337.65V619.329ZM1341.87 619.329H1342.93V632H1341.87V619.329ZM1339.76 619.329H1340.82V632H1339.76V619.329ZM1336.6 619.329V632C1334.74 632.703 1332.82 633.055 1330.83 633.055C1329.1 633.055 1327.44 632.737 1325.86 632.103C1324.28 631.468 1322.89 630.589 1321.69 629.466C1320.48 628.333 1319.52 626.937 1318.8 625.276C1318.09 623.606 1317.73 621.805 1317.73 619.871C1317.73 618.084 1318.08 616.38 1318.77 614.759C1319.47 613.128 1320.41 611.727 1321.58 610.555C1322.76 609.373 1324.17 608.436 1325.79 607.742C1327.42 607.039 1329.13 606.688 1330.91 606.688C1333.14 606.688 1335.21 607.205 1337.12 608.24C1339.04 609.275 1340.6 610.682 1341.81 612.459L1340.93 613.03C1339.82 611.399 1338.38 610.11 1336.61 609.163C1334.85 608.216 1332.96 607.742 1330.91 607.742C1329.27 607.742 1327.7 608.064 1326.2 608.709C1324.7 609.344 1323.41 610.203 1322.33 611.287C1321.25 612.371 1320.38 613.665 1319.74 615.169C1319.1 616.663 1318.79 618.23 1318.79 619.871C1318.79 621.639 1319.11 623.289 1319.77 624.822C1320.43 626.355 1321.31 627.64 1322.4 628.675C1323.51 629.71 1324.79 630.525 1326.24 631.121C1327.7 631.707 1329.21 632 1330.78 632C1332.43 632 1334.02 631.741 1335.54 631.224V630.213C1334.09 630.701 1332.56 630.945 1330.96 630.945C1329.8 630.945 1328.66 630.784 1327.56 630.462C1326.47 630.13 1325.45 629.646 1324.51 629.012C1323.58 628.367 1322.77 627.605 1322.07 626.727C1321.37 625.838 1320.83 624.808 1320.43 623.636C1320.04 622.454 1319.84 621.199 1319.84 619.871C1319.84 617.869 1320.33 616.019 1321.32 614.319C1322.32 612.62 1323.66 611.277 1325.36 610.291C1327.06 609.295 1328.91 608.797 1330.91 608.797C1332.79 608.797 1334.53 609.236 1336.14 610.115C1337.75 610.984 1339.07 612.166 1340.08 613.66L1339.21 614.231C1338.29 612.884 1337.1 611.819 1335.63 611.038C1334.18 610.247 1332.6 609.852 1330.91 609.852C1329.56 609.852 1328.26 610.115 1327.02 610.643C1325.78 611.17 1324.71 611.883 1323.81 612.781C1322.92 613.67 1322.21 614.734 1321.69 615.975C1321.16 617.215 1320.89 618.514 1320.89 619.871C1320.89 621.092 1321.07 622.239 1321.42 623.313C1321.78 624.378 1322.28 625.311 1322.9 626.111C1323.54 626.902 1324.27 627.586 1325.11 628.162C1325.95 628.729 1326.87 629.158 1327.85 629.451C1328.85 629.744 1329.87 629.891 1330.91 629.891C1332.54 629.891 1334.08 629.617 1335.54 629.07V628.016C1334.1 628.572 1332.59 628.851 1331.02 628.851C1329.83 628.851 1328.69 628.65 1327.6 628.25C1326.52 627.84 1325.55 627.264 1324.7 626.521C1323.86 625.779 1323.19 624.832 1322.7 623.68C1322.2 622.527 1321.95 621.258 1321.95 619.871C1321.95 618.25 1322.35 616.751 1323.15 615.374C1323.95 613.997 1325.04 612.908 1326.42 612.107C1327.79 611.307 1329.29 610.906 1330.91 610.906C1332.43 610.906 1333.83 611.258 1335.13 611.961C1336.44 612.664 1337.51 613.621 1338.33 614.832L1337.45 615.403C1336.72 614.349 1335.79 613.514 1334.63 612.898C1333.49 612.273 1332.25 611.961 1330.91 611.961C1329.48 611.961 1328.16 612.317 1326.94 613.03C1325.73 613.733 1324.77 614.69 1324.06 615.901C1323.36 617.112 1323 618.436 1323 619.871C1323 620.867 1323.15 621.795 1323.43 622.654C1323.71 623.514 1324.1 624.256 1324.6 624.881C1325.1 625.506 1325.68 626.038 1326.34 626.478C1327.02 626.917 1327.74 627.249 1328.51 627.474C1329.28 627.688 1330.08 627.796 1330.91 627.796C1332.56 627.796 1334.11 627.469 1335.54 626.814V625.804C1334.16 626.419 1332.66 626.727 1331.05 626.727C1330.12 626.727 1329.24 626.585 1328.42 626.302C1327.6 626.019 1326.86 625.604 1326.2 625.057C1325.54 624.51 1325.02 623.792 1324.63 622.903C1324.25 622.005 1324.06 620.994 1324.06 619.871C1324.06 618.943 1324.24 618.06 1324.6 617.22C1324.96 616.37 1325.45 615.638 1326.07 615.022C1326.68 614.407 1327.41 613.919 1328.25 613.558C1329.1 613.196 1329.99 613.016 1330.91 613.016C1332.08 613.016 1333.16 613.289 1334.15 613.836C1335.15 614.373 1335.96 615.105 1336.58 616.033L1335.72 616.604C1335.19 615.823 1334.5 615.208 1333.65 614.759C1332.81 614.3 1331.9 614.07 1330.91 614.07C1329.31 614.07 1327.95 614.637 1326.81 615.77C1325.68 616.902 1325.11 618.27 1325.11 619.871C1325.11 620.857 1325.27 621.731 1325.6 622.493C1325.92 623.245 1326.36 623.851 1326.92 624.31C1327.48 624.759 1328.11 625.101 1328.79 625.335C1329.48 625.56 1330.23 625.672 1331.02 625.672C1332.64 625.672 1334.15 625.335 1335.54 624.661V619.329H1336.6ZM1355.99 624.881L1356.42 623.826H1360.02L1360.45 624.881H1355.99ZM1355.17 626.99L1355.58 625.936H1360.84L1361.29 626.99H1355.17ZM1354.35 629.1L1354.76 628.045H1361.68L1362.12 629.1H1354.35ZM1345.78 632H1344.64L1354.23 607.742H1355.38L1364.96 632H1363.83L1354.81 609.163L1345.78 632ZM1354.94 611.668L1355.54 613.016L1348.04 632H1346.91L1354.94 611.668ZM1356.11 614.451L1356.67 615.901L1350.32 632H1349.18L1356.11 614.451ZM1357.22 617.352L1357.78 618.831L1352.58 632H1351.45L1357.22 617.352ZM1371.77 632H1370.63L1361.05 607.742H1362.17L1371.77 632ZM1359.9 607.742L1369.5 632H1368.37L1358.78 607.742H1359.9ZM1357.63 607.742L1367.23 632H1366.08L1356.5 607.742H1357.63ZM1391.08 623.152L1392.13 621.16V632H1391.08V623.152ZM1393.18 619.109L1394.24 617.117V632H1393.18V619.109ZM1395.29 615.125L1396.35 613.118V632H1395.29V615.125ZM1388.22 622.654L1387.62 621.556L1394.88 607.742H1396.07L1388.22 622.654ZM1387 620.354L1386.39 619.241L1392.48 607.742H1393.68L1387 620.354ZM1379.94 621.277L1381 623.27V632H1379.94V621.277ZM1377.83 617.264L1378.89 619.256V632H1377.83V617.264ZM1375.72 613.25L1376.78 615.257V632H1375.72V613.25ZM1384.25 625.672H1383.06L1374.67 609.749V632H1373.61V607.742H1374.8L1384.25 625.672ZM1386.64 625.672H1385.44L1376 607.742H1377.2L1386.64 625.672ZM1397.4 609.749L1389.01 625.672H1387.81L1378.39 607.742H1379.58L1388.42 624.559L1397.26 607.742H1398.46V632H1397.4V609.749ZM1406.51 632H1405.46V607.742H1406.51V632ZM1404.41 632H1403.35V607.742H1404.41V632ZM1402.3 632H1401.24V607.742H1402.3V632ZM1408.62 626.727H1419.84V627.781H1408.62V628.836H1419.84V629.891H1408.62V630.945H1419.84V632H1407.57V607.742H1419.84V608.797H1408.62V609.852H1419.84V610.906H1408.62V611.961H1419.84V613.016H1408.62V617.234H1414.38V618.289H1408.62V619.344H1414.38V620.398H1408.62V621.453H1414.38V622.508H1408.62V626.727ZM1268.03 663.033L1267.16 663.604C1266.64 662.823 1265.95 662.208 1265.1 661.759C1264.26 661.3 1263.35 661.07 1262.36 661.07C1260.76 661.07 1259.39 661.637 1258.26 662.77C1257.12 663.902 1256.56 665.27 1256.56 666.871C1256.56 668.473 1257.12 669.84 1258.26 670.973C1259.39 672.105 1260.76 672.672 1262.36 672.672C1263.35 672.672 1264.26 672.442 1265.1 671.983C1265.95 671.524 1266.64 670.904 1267.16 670.123L1268.01 670.738C1267.39 671.656 1266.58 672.384 1265.58 672.921C1264.59 673.458 1263.51 673.727 1262.36 673.727C1261.43 673.727 1260.54 673.546 1259.69 673.185C1258.85 672.823 1258.13 672.335 1257.51 671.72C1256.9 671.104 1256.41 670.377 1256.05 669.537C1255.68 668.688 1255.5 667.799 1255.5 666.871C1255.5 665.943 1255.68 665.06 1256.05 664.22C1256.41 663.37 1256.9 662.638 1257.51 662.022C1258.13 661.407 1258.85 660.919 1259.69 660.558C1260.54 660.196 1261.43 660.016 1262.36 660.016C1263.52 660.016 1264.6 660.289 1265.6 660.836C1266.59 661.373 1267.4 662.105 1268.03 663.033ZM1269.77 661.832L1268.89 662.403C1268.17 661.349 1267.23 660.514 1266.08 659.898C1264.94 659.273 1263.7 658.961 1262.36 658.961C1260.92 658.961 1259.6 659.317 1258.39 660.03C1257.18 660.733 1256.22 661.69 1255.5 662.901C1254.8 664.112 1254.45 665.436 1254.45 666.871C1254.45 668.307 1254.8 669.63 1255.5 670.841C1256.22 672.052 1257.18 673.014 1258.39 673.727C1259.6 674.43 1260.92 674.781 1262.36 674.781C1263.7 674.781 1264.94 674.469 1266.09 673.844C1267.25 673.219 1268.18 672.374 1268.91 671.31L1269.77 671.91C1268.95 673.121 1267.89 674.078 1266.58 674.781C1265.28 675.484 1263.87 675.836 1262.36 675.836C1260.74 675.836 1259.24 675.436 1257.86 674.635C1256.49 673.834 1255.4 672.745 1254.6 671.368C1253.79 669.991 1253.39 668.492 1253.39 666.871C1253.39 665.25 1253.79 663.751 1254.6 662.374C1255.4 660.997 1256.49 659.908 1257.86 659.107C1259.24 658.307 1260.74 657.906 1262.36 657.906C1263.87 657.906 1265.28 658.258 1266.58 658.961C1267.89 659.664 1268.95 660.621 1269.77 661.832ZM1271.53 660.66L1270.65 661.231C1269.73 659.884 1268.54 658.819 1267.08 658.038C1265.62 657.247 1264.05 656.852 1262.36 656.852C1261 656.852 1259.7 657.115 1258.46 657.643C1257.22 658.17 1256.15 658.883 1255.25 659.781C1254.37 660.67 1253.66 661.734 1253.13 662.975C1252.6 664.215 1252.34 665.514 1252.34 666.871C1252.34 668.229 1252.6 669.527 1253.13 670.768C1253.66 672.008 1254.37 673.077 1255.25 673.976C1256.15 674.864 1257.22 675.572 1258.46 676.1C1259.7 676.627 1261 676.891 1262.36 676.891C1264.06 676.891 1265.64 676.495 1267.09 675.704C1268.55 674.913 1269.73 673.844 1270.65 672.496L1271.5 673.126C1270.48 674.61 1269.17 675.787 1267.56 676.656C1265.96 677.516 1264.22 677.945 1262.36 677.945C1260.36 677.945 1258.51 677.452 1256.81 676.466C1255.11 675.47 1253.76 674.122 1252.76 672.423C1251.78 670.724 1251.29 668.873 1251.29 666.871C1251.29 664.869 1251.78 663.019 1252.76 661.319C1253.76 659.62 1255.11 658.277 1256.81 657.291C1258.51 656.295 1260.36 655.797 1262.36 655.797C1264.23 655.797 1265.98 656.236 1267.59 657.115C1269.2 657.984 1270.51 659.166 1271.53 660.66ZM1273.26 659.459L1272.38 660.03C1271.27 658.399 1269.83 657.11 1268.06 656.163C1266.3 655.216 1264.4 654.742 1262.36 654.742C1260.72 654.742 1259.15 655.064 1257.64 655.709C1256.15 656.344 1254.86 657.203 1253.78 658.287C1252.69 659.371 1251.83 660.665 1251.18 662.169C1250.55 663.663 1250.23 665.23 1250.23 666.871C1250.23 668.512 1250.55 670.084 1251.18 671.588C1251.83 673.082 1252.69 674.371 1253.78 675.455C1254.86 676.539 1256.15 677.403 1257.64 678.048C1259.15 678.683 1260.72 679 1262.36 679C1264.4 679 1266.3 678.521 1268.07 677.564C1269.84 676.607 1271.28 675.313 1272.39 673.683L1273.24 674.327C1272.03 676.085 1270.47 677.481 1268.56 678.517C1266.64 679.542 1264.58 680.055 1262.36 680.055C1260.57 680.055 1258.86 679.703 1257.23 679C1255.61 678.307 1254.21 677.374 1253.03 676.202C1251.86 675.021 1250.92 673.619 1250.22 671.998C1249.52 670.367 1249.18 668.658 1249.18 666.871C1249.18 665.084 1249.52 663.38 1250.22 661.759C1250.92 660.128 1251.86 658.727 1253.03 657.555C1254.21 656.373 1255.61 655.436 1257.23 654.742C1258.86 654.039 1260.57 653.688 1262.36 653.688C1264.59 653.688 1266.66 654.205 1268.57 655.24C1270.48 656.275 1272.05 657.682 1273.26 659.459ZM1283.83 662.77C1282.7 663.902 1282.13 665.27 1282.13 666.871C1282.13 668.473 1282.7 669.84 1283.83 670.973C1284.97 672.105 1286.33 672.672 1287.94 672.672C1289.54 672.672 1290.9 672.105 1292.04 670.973C1293.17 669.84 1293.74 668.473 1293.74 666.871C1293.74 665.27 1293.17 663.902 1292.04 662.77C1290.9 661.637 1289.54 661.07 1287.94 661.07C1286.33 661.07 1284.97 661.637 1283.83 662.77ZM1281.62 669.537C1281.26 668.688 1281.08 667.799 1281.08 666.871C1281.08 665.943 1281.26 665.06 1281.62 664.22C1281.98 663.37 1282.47 662.638 1283.09 662.022C1283.7 661.407 1284.43 660.919 1285.27 660.558C1286.12 660.196 1287.01 660.016 1287.94 660.016C1288.86 660.016 1289.75 660.196 1290.59 660.558C1291.44 660.919 1292.17 661.407 1292.78 662.022C1293.4 662.638 1293.89 663.37 1294.25 664.22C1294.61 665.06 1294.79 665.943 1294.79 666.871C1294.79 667.799 1294.61 668.688 1294.25 669.537C1293.89 670.377 1293.4 671.104 1292.78 671.72C1292.17 672.335 1291.44 672.823 1290.59 673.185C1289.75 673.546 1288.86 673.727 1287.94 673.727C1287.01 673.727 1286.12 673.546 1285.27 673.185C1284.43 672.823 1283.7 672.335 1283.09 671.72C1282.47 671.104 1281.98 670.377 1281.62 669.537ZM1281.08 662.901C1280.38 664.112 1280.03 665.436 1280.03 666.871C1280.03 668.307 1280.38 669.63 1281.08 670.841C1281.79 672.052 1282.75 673.014 1283.97 673.727C1285.18 674.43 1286.5 674.781 1287.94 674.781C1289.37 674.781 1290.69 674.43 1291.91 673.727C1293.12 673.014 1294.07 672.052 1294.78 670.841C1295.49 669.63 1295.85 668.307 1295.85 666.871C1295.85 665.436 1295.49 664.112 1294.78 662.901C1294.07 661.69 1293.12 660.733 1291.91 660.03C1290.69 659.317 1289.37 658.961 1287.94 658.961C1286.5 658.961 1285.18 659.317 1283.97 660.03C1282.75 660.733 1281.79 661.69 1281.08 662.901ZM1280.17 671.368C1279.37 669.991 1278.97 668.492 1278.97 666.871C1278.97 665.25 1279.37 663.751 1280.17 662.374C1280.97 660.997 1282.06 659.908 1283.44 659.107C1284.82 658.307 1286.31 657.906 1287.94 657.906C1289.56 657.906 1291.06 658.307 1292.43 659.107C1293.81 659.908 1294.9 660.997 1295.7 662.374C1296.5 663.751 1296.9 665.25 1296.9 666.871C1296.9 668.492 1296.5 669.991 1295.7 671.368C1294.9 672.745 1293.81 673.834 1292.43 674.635C1291.06 675.436 1289.56 675.836 1287.94 675.836C1286.31 675.836 1284.82 675.436 1283.44 674.635C1282.06 673.834 1280.97 672.745 1280.17 671.368ZM1278.71 662.975C1278.18 664.215 1277.92 665.514 1277.92 666.871C1277.92 668.229 1278.18 669.527 1278.71 670.768C1279.23 672.008 1279.94 673.077 1280.83 673.976C1281.73 674.864 1282.8 675.572 1284.04 676.1C1285.28 676.627 1286.58 676.891 1287.94 676.891C1289.29 676.891 1290.59 676.627 1291.83 676.1C1293.07 675.572 1294.14 674.864 1295.03 673.976C1295.92 673.077 1296.64 672.008 1297.16 670.768C1297.69 669.527 1297.96 668.229 1297.96 666.871C1297.96 665.514 1297.69 664.215 1297.16 662.975C1296.64 661.734 1295.92 660.67 1295.03 659.781C1294.14 658.883 1293.07 658.17 1291.83 657.643C1290.59 657.115 1289.29 656.852 1287.94 656.852C1286.58 656.852 1285.28 657.115 1284.04 657.643C1282.8 658.17 1281.73 658.883 1280.83 659.781C1279.94 660.67 1279.23 661.734 1278.71 662.975ZM1278.34 672.423C1277.35 670.724 1276.86 668.873 1276.86 666.871C1276.86 664.869 1277.35 663.019 1278.34 661.319C1279.34 659.62 1280.68 658.277 1282.38 657.291C1284.08 656.295 1285.93 655.797 1287.94 655.797C1289.94 655.797 1291.79 656.295 1293.49 657.291C1295.19 658.277 1296.53 659.62 1297.52 661.319C1298.51 663.019 1299.01 664.869 1299.01 666.871C1299.01 668.873 1298.51 670.724 1297.52 672.423C1296.53 674.122 1295.19 675.47 1293.49 676.466C1291.79 677.452 1289.94 677.945 1287.94 677.945C1285.93 677.945 1284.08 677.452 1282.38 676.466C1280.68 675.47 1279.34 674.122 1278.34 672.423ZM1276.76 662.169C1276.12 663.663 1275.81 665.23 1275.81 666.871C1275.81 668.512 1276.12 670.084 1276.76 671.588C1277.4 673.082 1278.27 674.371 1279.35 675.455C1280.44 676.539 1281.72 677.403 1283.22 678.048C1284.72 678.683 1286.29 679 1287.94 679C1289.58 679 1291.14 678.683 1292.64 678.048C1294.14 677.403 1295.44 676.539 1296.52 675.455C1297.6 674.371 1298.46 673.082 1299.1 671.588C1299.74 670.084 1300.06 668.512 1300.06 666.871C1300.06 665.23 1299.74 663.663 1299.1 662.169C1298.46 660.665 1297.6 659.371 1296.52 658.287C1295.44 657.203 1294.14 656.344 1292.64 655.709C1291.14 655.064 1289.58 654.742 1287.94 654.742C1286.29 654.742 1284.72 655.064 1283.22 655.709C1281.72 656.344 1280.44 657.203 1279.35 658.287C1278.27 659.371 1277.4 660.665 1276.76 662.169ZM1275.79 671.998C1275.1 670.367 1274.75 668.658 1274.75 666.871C1274.75 665.084 1275.1 663.38 1275.79 661.759C1276.5 660.128 1277.43 658.727 1278.6 657.555C1279.79 656.373 1281.19 655.436 1282.81 654.742C1284.44 654.039 1286.15 653.688 1287.94 653.688C1289.72 653.688 1291.43 654.039 1293.05 654.742C1294.68 655.436 1296.08 656.373 1297.25 657.555C1298.43 658.727 1299.37 660.128 1300.06 661.759C1300.77 663.38 1301.12 665.084 1301.12 666.871C1301.12 668.658 1300.77 670.367 1300.06 671.998C1299.37 673.619 1298.43 675.021 1297.25 676.202C1296.08 677.374 1294.68 678.307 1293.05 679C1291.43 679.703 1289.72 680.055 1287.94 680.055C1286.15 680.055 1284.44 679.703 1282.81 679C1281.19 678.307 1279.79 677.374 1278.6 676.202C1277.43 675.021 1276.5 673.619 1275.79 671.998ZM1320.53 667.325L1319.47 665.582V654.742H1320.53V667.325ZM1322.64 670.782L1321.58 669.01V654.742H1322.64V670.782ZM1324.75 674.283L1323.69 672.496V654.742H1324.75V674.283ZM1309.63 666.417L1310.68 668.16V679H1309.63V666.417ZM1307.52 662.96L1308.58 664.732V679H1307.52V662.96ZM1305.41 659.459L1306.47 661.246V679H1305.41V659.459ZM1305.78 654.742H1307.01L1321.92 679H1320.69L1305.78 654.742ZM1308.27 654.742H1309.51L1324.41 679H1323.15L1308.27 654.742ZM1310.74 654.742H1311.97L1325.8 677.286V654.742H1326.86V679C1326.86 679 1326.44 679 1325.61 679L1310.74 654.742ZM1304.36 656.456V679H1303.3V654.742C1303.3 654.742 1303.72 654.742 1304.56 654.742L1319.43 679H1318.21L1304.36 656.456ZM1337.02 679H1335.97V654.742H1347.64V655.797H1337.02V656.852H1347.64V657.906H1337.02V658.961H1347.64V660.016H1337.02V665.289H1347.14V666.344H1337.02V667.398H1347.14V668.453H1337.02V669.508H1347.14V670.562H1337.02V679ZM1334.91 679H1333.86V654.742H1334.91V679ZM1332.8 679H1331.75V654.742H1332.8V679ZM1330.69 679H1329.64V654.742H1330.69V679ZM1355.42 679H1354.37V654.742H1355.42V679ZM1353.31 679H1352.26V654.742H1353.31V679ZM1351.2 679H1350.15V654.742H1351.2V679ZM1357.53 673.727H1368.75V674.781H1357.53V675.836H1368.75V676.891H1357.53V677.945H1368.75V679H1356.48V654.742H1368.75V655.797H1357.53V656.852H1368.75V657.906H1357.53V658.961H1368.75V660.016H1357.53V664.234H1363.29V665.289H1357.53V666.344H1363.29V667.398H1357.53V668.453H1363.29V669.508H1357.53V673.727ZM1379.33 666.93H1385.68C1386.65 666.93 1387.47 666.617 1388.13 665.992C1388.8 665.367 1389.14 664.479 1389.14 663.326C1389.14 662.477 1388.79 661.715 1388.09 661.041C1387.38 660.357 1386.58 660.016 1385.68 660.016H1376.63V679H1375.58V658.961H1385.68C1386.88 658.961 1387.93 659.405 1388.83 660.294C1389.74 661.173 1390.2 662.184 1390.2 663.326C1390.2 664.732 1389.76 665.86 1388.88 666.71C1388 667.56 1386.93 667.984 1385.68 667.984H1379.33V666.93ZM1379.33 669.039H1385.68C1387.21 669.039 1388.52 668.507 1389.61 667.442C1390.7 666.368 1391.25 664.996 1391.25 663.326C1391.25 661.891 1390.69 660.631 1389.57 659.547C1388.45 658.453 1387.16 657.906 1385.68 657.906H1374.52V679H1373.47V656.852H1385.68C1386.85 656.852 1387.94 657.149 1388.95 657.745C1389.98 658.341 1390.79 659.142 1391.4 660.147C1392 661.144 1392.31 662.203 1392.31 663.326C1392.31 665.25 1391.65 666.861 1390.34 668.16C1389.04 669.449 1387.49 670.094 1385.68 670.094H1379.33V669.039ZM1379.33 671.148H1385.68C1387.05 671.148 1388.32 670.812 1389.49 670.138C1390.67 669.464 1391.6 668.526 1392.31 667.325C1393.01 666.114 1393.36 664.781 1393.36 663.326C1393.36 662.008 1393.01 660.772 1392.31 659.62C1391.61 658.458 1390.67 657.53 1389.49 656.837C1388.31 656.144 1387.04 655.797 1385.68 655.797H1372.41V679H1371.36V654.742H1385.68C1387.22 654.742 1388.66 655.138 1390.01 655.929C1391.35 656.71 1392.42 657.765 1393.21 659.093C1394.01 660.411 1394.42 661.822 1394.42 663.326C1394.42 665.064 1394.04 666.593 1393.29 667.911C1392.54 669.229 1391.53 670.26 1390.25 671.002L1392.98 679H1391.87L1389.26 671.5C1388.87 671.656 1388.57 671.764 1388.37 671.822L1390.81 679H1389.7L1387.31 672.071C1387.22 672.091 1386.91 672.125 1386.37 672.174L1388.64 679H1387.53L1385.29 672.203H1384.34L1386.48 679H1385.36L1383.21 672.203H1379.33V671.148ZM1378.74 679H1377.69V661.07H1385.68C1386.34 661.07 1386.9 661.295 1387.37 661.744C1387.85 662.184 1388.09 662.711 1388.09 663.326C1388.09 665.025 1387.29 665.875 1385.68 665.875H1379.33V664.82H1385.68C1386.1 664.82 1386.43 664.713 1386.67 664.498C1386.91 664.273 1387.03 663.883 1387.03 663.326C1387.03 662.984 1386.9 662.701 1386.64 662.477C1386.38 662.242 1386.07 662.125 1385.68 662.125H1378.74V679ZM1401.94 679H1400.89V654.742H1401.94V679ZM1399.83 679H1398.78V654.742H1399.83V679ZM1397.73 679H1396.67V654.742H1397.73V679ZM1404.05 673.727H1415.27V674.781H1404.05V675.836H1415.27V676.891H1404.05V677.945H1415.27V679H1403V654.742H1415.27V655.797H1404.05V656.852H1415.27V657.906H1404.05V658.961H1415.27V660.016H1404.05V664.234H1409.81V665.289H1404.05V666.344H1409.81V667.398H1404.05V668.453H1409.81V669.508H1404.05V673.727ZM1435.11 667.325L1434.05 665.582V654.742H1435.11V667.325ZM1437.22 670.782L1436.16 669.01V654.742H1437.22V670.782ZM1439.33 674.283L1438.27 672.496V654.742H1439.33V674.283ZM1424.21 666.417L1425.26 668.16V679H1424.21V666.417ZM1422.1 662.96L1423.16 664.732V679H1422.1V662.96ZM1419.99 659.459L1421.05 661.246V679H1419.99V659.459ZM1420.36 654.742H1421.59L1436.5 679H1435.27L1420.36 654.742ZM1422.85 654.742H1424.09L1438.99 679H1437.73L1422.85 654.742ZM1425.32 654.742H1426.55L1440.38 677.286V654.742H1441.44V679C1441.44 679 1441.02 679 1440.19 679L1425.32 654.742ZM1418.94 656.456V679H1417.88V654.742C1417.88 654.742 1418.3 654.742 1419.14 654.742L1434.01 679H1432.79L1418.94 656.456ZM1462.53 663.033L1461.67 663.604C1461.14 662.823 1460.45 662.208 1459.6 661.759C1458.76 661.3 1457.85 661.07 1456.86 661.07C1455.26 661.07 1453.89 661.637 1452.76 662.77C1451.63 663.902 1451.06 665.27 1451.06 666.871C1451.06 668.473 1451.63 669.84 1452.76 670.973C1453.89 672.105 1455.26 672.672 1456.86 672.672C1457.85 672.672 1458.76 672.442 1459.6 671.983C1460.45 671.524 1461.14 670.904 1461.67 670.123L1462.52 670.738C1461.89 671.656 1461.08 672.384 1460.08 672.921C1459.09 673.458 1458.01 673.727 1456.86 673.727C1455.93 673.727 1455.04 673.546 1454.2 673.185C1453.36 672.823 1452.63 672.335 1452.01 671.72C1451.4 671.104 1450.91 670.377 1450.55 669.537C1450.19 668.688 1450.01 667.799 1450.01 666.871C1450.01 665.943 1450.19 665.06 1450.55 664.22C1450.91 663.37 1451.4 662.638 1452.01 662.022C1452.63 661.407 1453.36 660.919 1454.2 660.558C1455.04 660.196 1455.93 660.016 1456.86 660.016C1458.02 660.016 1459.1 660.289 1460.1 660.836C1461.09 661.373 1461.91 662.105 1462.53 663.033ZM1464.27 661.832L1463.39 662.403C1462.67 661.349 1461.73 660.514 1460.58 659.898C1459.44 659.273 1458.2 658.961 1456.86 658.961C1455.43 658.961 1454.1 659.317 1452.89 660.03C1451.68 660.733 1450.72 661.69 1450.01 662.901C1449.3 664.112 1448.95 665.436 1448.95 666.871C1448.95 668.307 1449.3 669.63 1450.01 670.841C1450.72 672.052 1451.68 673.014 1452.89 673.727C1454.1 674.43 1455.43 674.781 1456.86 674.781C1458.2 674.781 1459.44 674.469 1460.6 673.844C1461.75 673.219 1462.69 672.374 1463.41 671.31L1464.27 671.91C1463.45 673.121 1462.39 674.078 1461.08 674.781C1459.78 675.484 1458.38 675.836 1456.86 675.836C1455.24 675.836 1453.74 675.436 1452.36 674.635C1450.99 673.834 1449.9 672.745 1449.1 671.368C1448.3 669.991 1447.9 668.492 1447.9 666.871C1447.9 665.25 1448.3 663.751 1449.1 662.374C1449.9 660.997 1450.99 659.908 1452.36 659.107C1453.74 658.307 1455.24 657.906 1456.86 657.906C1458.38 657.906 1459.78 658.258 1461.08 658.961C1462.39 659.664 1463.45 660.621 1464.27 661.832ZM1466.03 660.66L1465.15 661.231C1464.23 659.884 1463.04 658.819 1461.58 658.038C1460.12 657.247 1458.55 656.852 1456.86 656.852C1455.5 656.852 1454.21 657.115 1452.96 657.643C1451.72 658.17 1450.66 658.883 1449.76 659.781C1448.87 660.67 1448.16 661.734 1447.63 662.975C1447.11 664.215 1446.84 665.514 1446.84 666.871C1446.84 668.229 1447.11 669.527 1447.63 670.768C1448.16 672.008 1448.87 673.077 1449.76 673.976C1450.66 674.864 1451.72 675.572 1452.96 676.1C1454.21 676.627 1455.5 676.891 1456.86 676.891C1458.56 676.891 1460.14 676.495 1461.59 675.704C1463.05 674.913 1464.23 673.844 1465.15 672.496L1466 673.126C1464.99 674.61 1463.67 675.787 1462.06 676.656C1460.46 677.516 1458.73 677.945 1456.86 677.945C1454.86 677.945 1453.01 677.452 1451.31 676.466C1449.61 675.47 1448.26 674.122 1447.27 672.423C1446.28 670.724 1445.79 668.873 1445.79 666.871C1445.79 664.869 1446.28 663.019 1447.27 661.319C1448.26 659.62 1449.61 658.277 1451.31 657.291C1453.01 656.295 1454.86 655.797 1456.86 655.797C1458.74 655.797 1460.48 656.236 1462.09 657.115C1463.7 657.984 1465.02 659.166 1466.03 660.66ZM1467.76 659.459L1466.88 660.03C1465.77 658.399 1464.33 657.11 1462.56 656.163C1460.8 655.216 1458.9 654.742 1456.86 654.742C1455.22 654.742 1453.65 655.064 1452.14 655.709C1450.65 656.344 1449.36 657.203 1448.28 658.287C1447.19 659.371 1446.33 660.665 1445.68 662.169C1445.05 663.663 1444.73 665.23 1444.73 666.871C1444.73 668.512 1445.05 670.084 1445.68 671.588C1446.33 673.082 1447.19 674.371 1448.28 675.455C1449.36 676.539 1450.65 677.403 1452.14 678.048C1453.65 678.683 1455.22 679 1456.86 679C1458.9 679 1460.81 678.521 1462.57 677.564C1464.34 676.607 1465.78 675.313 1466.9 673.683L1467.75 674.327C1466.53 676.085 1464.97 677.481 1463.06 678.517C1461.14 679.542 1459.08 680.055 1456.86 680.055C1455.07 680.055 1453.37 679.703 1451.73 679C1450.11 678.307 1448.71 677.374 1447.53 676.202C1446.36 675.021 1445.42 673.619 1444.72 671.998C1444.02 670.367 1443.68 668.658 1443.68 666.871C1443.68 665.084 1444.02 663.38 1444.72 661.759C1445.42 660.128 1446.36 658.727 1447.53 657.555C1448.71 656.373 1450.11 655.436 1451.73 654.742C1453.37 654.039 1455.07 653.688 1456.86 653.688C1459.09 653.688 1461.16 654.205 1463.07 655.24C1464.99 656.275 1466.55 657.682 1467.76 659.459ZM1475.07 679H1474.01V654.742H1475.07V679ZM1472.96 679H1471.91V654.742H1472.96V679ZM1470.85 679H1469.8V654.742H1470.85V679ZM1477.18 673.727H1488.4V674.781H1477.18V675.836H1488.4V676.891H1477.18V677.945H1488.4V679H1476.12V654.742H1488.4V655.797H1477.18V656.852H1488.4V657.906H1477.18V658.961H1488.4V660.016H1477.18V664.234H1482.94V665.289H1477.18V666.344H1482.94V667.398H1477.18V668.453H1482.94V669.508H1477.18V673.727Z" fill="black"/>
<path d="M1325.5 887.5C1336.29 887.5 1345.5 880.127 1345.5 870.5C1345.5 860.874 1336.29 853.5 1325.5 853.5C1314.71 853.5 1305.5 860.874 1305.5 870.5C1305.5 880.127 1314.71 887.5 1325.5 887.5Z" fill="#C2FF13" stroke="#E5E5E5" stroke-width="3"/>
<path d="M1252 887.5C1262.55 887.5 1271.5 880.091 1271.5 870.5C1271.5 860.909 1262.55 853.5 1252 853.5C1241.45 853.5 1232.5 860.909 1232.5 870.5C1232.5 880.091 1241.45 887.5 1252 887.5Z" fill="#C2FF13" stroke="#E5E5E5" stroke-width="3"/>
<path d="M1325.5 828.5C1336.42 828.5 1345.5 820.334 1345.5 810C1345.5 799.666 1336.42 791.5 1325.5 791.5C1314.58 791.5 1305.5 799.666 1305.5 810C1305.5 820.334 1314.58 828.5 1325.5 828.5Z" fill="#C2FF13" stroke="#E5E5E5" stroke-width="3"/>
<line x1="1189.5" y1="831" x2="1189.5" y2="891" stroke="black" stroke-width="3"/>
<path d="M1188 843.5C1203.24 843.5 1215.5 830.686 1215.5 815C1215.5 799.314 1203.24 786.5 1188 786.5C1172.76 786.5 1160.5 799.314 1160.5 815C1160.5 830.686 1172.76 843.5 1188 843.5Z" fill="#D95FCD" stroke="#E5E5E5" stroke-width="3"/>
<path d="M1300.38 205.484H1302.49V254H1300.38V205.484ZM1253.97 205.484H1256.08V254H1253.97V205.484ZM1296.16 205.484H1298.27V254H1296.16V205.484ZM1291.94 205.484H1294.05V254H1291.94V205.484ZM1287.72 205.484H1289.83V254H1287.72V234.986H1268.74V254H1266.63V205.484H1268.74V224.439H1287.72V205.484ZM1262.41 205.484H1264.52V254H1262.41V205.484ZM1258.19 205.484H1260.3V254H1258.19V205.484ZM1287.72 232.877V230.768H1268.74V232.877H1287.72ZM1287.72 228.658V226.549H1268.74V228.658H1287.72ZM1324.28 229.596L1323.23 231.91L1310.57 205.484H1312.68L1324.28 229.596ZM1326.39 224.967L1325.31 227.281L1314.79 205.484H1316.9L1326.39 224.967ZM1328.5 220.367L1327.45 222.682L1319.01 205.484H1321.12L1328.5 220.367ZM1325.84 237.652L1341.1 205.484H1343.21L1327.95 237.652V254H1325.84V237.652ZM1330.05 237.652L1345.32 205.484H1347.43L1332.16 237.652V254H1330.05V237.652ZM1334.27 237.652L1349.54 205.484H1351.65L1336.38 237.652V254H1334.27V237.652ZM1322.67 235.426L1336.88 205.484H1338.99L1323.73 237.652V254H1321.62V237.652L1306.35 205.484H1308.46L1322.67 235.426ZM1371.8 231.031H1384.05C1386.06 231.031 1387.76 230.357 1389.15 229.01C1390.55 227.643 1391.26 225.719 1391.26 223.238C1391.26 221.383 1390.52 219.723 1389.06 218.258C1387.59 216.773 1385.92 216.031 1384.05 216.031H1365.94V254H1363.83V213.922H1384.05C1386.51 213.922 1388.68 214.869 1390.55 216.764C1392.43 218.658 1393.37 220.816 1393.37 223.238C1393.37 226.227 1392.46 228.629 1390.64 230.445C1388.82 232.242 1386.63 233.141 1384.05 233.141H1371.8V231.031ZM1371.8 235.25H1384.05C1386.08 235.25 1387.96 234.762 1389.67 233.785C1391.41 232.789 1392.81 231.363 1393.86 229.508C1394.94 227.652 1395.47 225.562 1395.47 223.238C1395.47 220.23 1394.32 217.574 1392.02 215.27C1389.73 212.965 1387.08 211.812 1384.05 211.812H1361.72V254H1359.62V209.703H1384.05C1386.41 209.703 1388.64 210.328 1390.73 211.578C1392.82 212.828 1394.48 214.498 1395.71 216.588C1396.96 218.678 1397.58 220.895 1397.58 223.238C1397.58 225.895 1396.96 228.316 1395.71 230.504C1394.46 232.672 1392.8 234.361 1390.73 235.572C1388.68 236.764 1386.45 237.359 1384.05 237.359H1371.8V235.25ZM1371.8 239.469H1384.05C1386.14 239.469 1388.14 239.059 1390.05 238.238C1391.97 237.398 1393.63 236.275 1395.04 234.869C1396.46 233.443 1397.59 231.725 1398.43 229.713C1399.27 227.682 1399.69 225.523 1399.69 223.238C1399.69 220.504 1398.98 217.936 1397.55 215.533C1396.13 213.111 1394.21 211.188 1391.78 209.762C1389.38 208.316 1386.8 207.594 1384.05 207.594H1357.51V254H1355.4V205.484H1384.05C1387.17 205.484 1390.1 206.305 1392.84 207.945C1395.57 209.566 1397.75 211.744 1399.37 214.479C1400.99 217.213 1401.8 220.133 1401.8 223.238C1401.8 226.012 1401.32 228.57 1400.37 230.914C1399.41 233.238 1398.12 235.172 1396.5 236.715C1394.88 238.258 1392.99 239.459 1390.85 240.318C1388.7 241.158 1386.43 241.578 1384.05 241.578H1371.8V239.469ZM1370.16 254H1368.05V218.141H1384.05C1385.44 218.141 1386.63 218.648 1387.62 219.664C1388.64 220.68 1389.15 221.871 1389.15 223.238C1389.15 227.027 1387.45 228.922 1384.05 228.922H1371.8V226.812H1384.05C1384.99 226.812 1385.72 226.549 1386.25 226.021C1386.77 225.494 1387.04 224.566 1387.04 223.238C1387.04 222.379 1386.74 221.666 1386.16 221.1C1385.59 220.533 1384.89 220.25 1384.05 220.25H1370.16V254ZM1416.98 254H1414.87V205.484H1416.98V254ZM1412.76 254H1410.65V205.484H1412.76V254ZM1408.54 254H1406.43V205.484H1408.54V254ZM1421.2 243.453H1443.64V245.562H1421.2V247.672H1443.64V249.781H1421.2V251.891H1443.64V254H1419.09V205.484H1443.64V207.594H1421.2V209.703H1443.64V211.812H1421.2V213.922H1443.64V216.031H1421.2V224.469H1432.71V226.578H1421.2V228.688H1432.71V230.797H1421.2V232.906H1432.71V235.016H1421.2V243.453ZM1464.79 229.859H1477.51C1479.44 229.859 1481.07 229.234 1482.4 227.984C1483.75 226.734 1484.42 224.957 1484.42 222.652C1484.42 220.953 1483.72 219.43 1482.31 218.082C1480.9 216.715 1479.3 216.031 1477.51 216.031H1459.4V254H1457.29V213.922H1477.51C1479.89 213.922 1481.99 214.811 1483.8 216.588C1485.62 218.346 1486.53 220.367 1486.53 222.652C1486.53 225.465 1485.65 227.721 1483.89 229.42C1482.13 231.119 1480.01 231.969 1477.51 231.969H1464.79V229.859ZM1464.79 234.078H1477.51C1480.55 234.078 1483.17 233.014 1485.36 230.885C1487.54 228.736 1488.64 225.992 1488.64 222.652C1488.64 219.781 1487.52 217.262 1485.27 215.094C1483.04 212.906 1480.46 211.812 1477.51 211.812H1455.18V254H1453.07V209.703H1477.51C1479.83 209.703 1482.01 210.299 1484.04 211.49C1486.09 212.682 1487.72 214.283 1488.93 216.295C1490.14 218.287 1490.75 220.406 1490.75 222.652C1490.75 226.5 1489.44 229.723 1486.82 232.32C1484.22 234.898 1481.12 236.188 1477.51 236.188H1464.79V234.078ZM1464.79 238.297H1477.51C1480.24 238.297 1482.78 237.623 1485.12 236.275C1487.47 234.928 1489.34 233.053 1490.75 230.65C1492.15 228.229 1492.86 225.562 1492.86 222.652C1492.86 220.016 1492.15 217.545 1490.75 215.24C1489.36 212.916 1487.49 211.061 1485.12 209.674C1482.76 208.287 1480.22 207.594 1477.51 207.594H1450.96V254H1448.85V205.484H1477.51C1480.57 205.484 1483.45 206.275 1486.15 207.857C1488.84 209.42 1490.98 211.529 1492.56 214.186C1494.17 216.822 1494.97 219.645 1494.97 222.652C1494.97 226.129 1494.21 229.186 1492.71 231.822C1491.23 234.459 1489.21 236.52 1486.65 238.004L1492.1 254H1489.87L1484.65 239C1483.87 239.312 1483.28 239.527 1482.87 239.645L1487.76 254H1485.53L1480.76 240.143C1480.58 240.182 1479.96 240.25 1478.88 240.348L1483.42 254H1481.2L1476.71 240.406H1474.81L1479.09 254H1476.86L1472.55 240.406H1464.79V238.297ZM1463.62 254H1461.51V218.141H1477.51C1478.81 218.141 1479.94 218.59 1480.88 219.488C1481.83 220.367 1482.31 221.422 1482.31 222.652C1482.31 226.051 1480.71 227.75 1477.51 227.75H1464.79V225.641H1477.51C1478.35 225.641 1479 225.426 1479.47 224.996C1479.96 224.547 1480.2 223.766 1480.2 222.652C1480.2 221.969 1479.94 221.402 1479.41 220.953C1478.9 220.484 1478.27 220.25 1477.51 220.25H1463.62V254ZM1259.54 298.484H1261.65V347H1259.54V298.484ZM1255.32 298.484H1257.43V347H1255.32V298.484ZM1251.1 298.484H1253.21V347H1251.1V298.484ZM1246.88 298.484H1248.99V347H1246.88V298.484ZM1286.81 317.469H1283.27C1281.76 317.469 1280.68 317.088 1280.02 316.326C1279.35 315.545 1279.02 314.52 1279.02 313.25C1279.02 310.438 1281.12 309.031 1285.32 309.031C1289.26 309.031 1292.23 309.617 1294.22 310.789L1292.53 312.078C1291.16 311.453 1288.76 311.141 1285.32 311.141C1283.64 311.141 1282.51 311.326 1281.92 311.697C1281.35 312.068 1281.07 312.586 1281.07 313.25C1281.07 313.914 1281.23 314.432 1281.54 314.803C1281.85 315.174 1282.43 315.359 1283.27 315.359H1286.9C1289.54 315.359 1291.91 315.809 1294.02 316.707C1296.15 317.605 1297.9 318.836 1299.26 320.398C1300.63 321.941 1301.68 323.729 1302.4 325.76C1303.12 327.771 1303.48 329.93 1303.48 332.234C1303.48 334.109 1303.22 335.887 1302.69 337.566C1302.16 339.246 1301.36 340.789 1300.29 342.195C1299.23 343.602 1297.96 344.822 1296.45 345.857C1294.97 346.873 1293.19 347.664 1291.12 348.23C1289.07 348.816 1286.84 349.109 1284.44 349.109C1280.67 349.109 1277.13 348.533 1273.83 347.381C1270.55 346.248 1267.82 344.656 1265.63 342.605L1267.33 341.346C1269.32 343.143 1271.81 344.539 1274.8 345.535C1277.81 346.512 1281.02 347 1284.44 347C1287.12 347 1289.53 346.619 1291.68 345.857C1293.84 345.076 1295.62 344.012 1297.01 342.664C1298.41 341.316 1299.49 339.754 1300.23 337.977C1300.99 336.199 1301.37 334.285 1301.37 332.234C1301.37 329.52 1300.83 327.068 1299.73 324.881C1298.64 322.674 1296.97 320.887 1294.72 319.52C1292.5 318.152 1289.86 317.469 1286.81 317.469ZM1283.27 319.578H1286.61C1290.57 319.578 1293.67 320.789 1295.89 323.211C1298.14 325.633 1299.26 328.641 1299.26 332.234C1299.26 335.887 1297.96 338.914 1295.37 341.316C1292.77 343.699 1289.13 344.891 1284.44 344.891C1281.31 344.891 1278.39 344.461 1275.68 343.602C1272.96 342.742 1270.71 341.531 1268.91 339.969L1270.55 338.65C1272.15 339.959 1274.17 340.975 1276.59 341.697C1279.03 342.42 1281.65 342.781 1284.44 342.781C1288.56 342.781 1291.71 341.795 1293.87 339.822C1296.06 337.85 1297.15 335.32 1297.15 332.234C1297.15 329.188 1296.24 326.668 1294.4 324.676C1292.58 322.684 1289.98 321.688 1286.58 321.688H1283.27C1280.42 321.688 1278.28 320.906 1276.85 319.344C1275.43 317.781 1274.71 315.75 1274.71 313.25C1274.71 310.75 1275.59 308.719 1277.35 307.156C1279.13 305.594 1281.78 304.812 1285.32 304.812C1287.8 304.812 1290.1 305.105 1292.23 305.691C1294.36 306.258 1296.12 307.078 1297.51 308.152L1295.84 309.441C1293.39 307.762 1289.89 306.922 1285.32 306.922C1282.37 306.922 1280.21 307.508 1278.84 308.68C1277.5 309.832 1276.82 311.355 1276.82 313.25C1276.82 315.164 1277.32 316.697 1278.32 317.85C1279.33 319.002 1280.98 319.578 1283.27 319.578ZM1283.27 323.797H1286.49C1289.34 323.797 1291.48 324.588 1292.91 326.17C1294.33 327.752 1295.04 329.773 1295.04 332.234C1295.04 334.734 1294.16 336.766 1292.38 338.328C1290.62 339.891 1287.97 340.672 1284.44 340.672C1281.96 340.672 1279.64 340.389 1277.5 339.822C1275.37 339.236 1273.61 338.406 1272.22 337.332L1273.89 336.043C1276.33 337.723 1279.85 338.562 1284.44 338.562C1287.39 338.562 1289.54 337.986 1290.88 336.834C1292.25 335.662 1292.94 334.129 1292.94 332.234C1292.94 330.34 1292.43 328.816 1291.41 327.664C1290.4 326.492 1288.75 325.906 1286.46 325.906H1283.27C1279.26 325.906 1276.13 324.715 1273.86 322.332C1271.62 319.93 1270.49 316.902 1270.49 313.25C1270.49 309.598 1271.79 306.58 1274.39 304.197C1276.99 301.795 1280.63 300.594 1285.32 300.594C1288.44 300.594 1291.35 301.023 1294.05 301.883C1296.76 302.742 1299.02 303.953 1300.82 305.516L1299.18 306.834C1297.57 305.525 1295.56 304.51 1293.14 303.787C1290.72 303.064 1288.11 302.703 1285.32 302.703C1281.2 302.703 1278.04 303.689 1275.86 305.662C1273.69 307.635 1272.6 310.164 1272.6 313.25C1272.6 316.316 1273.52 318.846 1275.36 320.838C1277.19 322.811 1279.83 323.797 1283.27 323.797ZM1283.27 328.016H1286.49C1287.99 328.016 1289.08 328.406 1289.74 329.188C1290.41 329.969 1290.74 330.984 1290.74 332.234C1290.74 335.047 1288.64 336.453 1284.44 336.453C1280.47 336.453 1277.5 335.867 1275.5 334.695L1277.2 333.406C1278.57 334.031 1280.98 334.344 1284.44 334.344C1286.12 334.344 1287.24 334.158 1287.81 333.787C1288.39 333.416 1288.69 332.898 1288.69 332.234C1288.69 331.59 1288.52 331.082 1288.19 330.711C1287.88 330.32 1287.29 330.125 1286.43 330.125H1283.27C1280.57 330.125 1278.13 329.686 1275.94 328.807C1273.78 327.928 1271.99 326.717 1270.58 325.174C1269.2 323.631 1268.13 321.844 1267.39 319.812C1266.65 317.781 1266.28 315.594 1266.28 313.25C1266.28 311.375 1266.54 309.598 1267.07 307.918C1267.59 306.238 1268.38 304.695 1269.44 303.289C1270.51 301.883 1271.79 300.672 1273.28 299.656C1274.78 298.621 1276.56 297.82 1278.61 297.254C1280.68 296.668 1282.92 296.375 1285.32 296.375C1289.09 296.375 1292.61 296.951 1295.89 298.104C1299.18 299.236 1301.91 300.828 1304.1 302.879L1302.4 304.139C1300.41 302.342 1297.92 300.955 1294.93 299.979C1291.94 298.982 1288.74 298.484 1285.32 298.484C1282.64 298.484 1280.22 298.875 1278.05 299.656C1275.9 300.418 1274.13 301.473 1272.72 302.82C1271.33 304.168 1270.26 305.73 1269.5 307.508C1268.76 309.285 1268.38 311.199 1268.38 313.25C1268.38 316.004 1268.94 318.484 1270.05 320.691C1271.17 322.898 1272.87 324.676 1275.15 326.023C1277.44 327.352 1280.14 328.016 1283.27 328.016ZM1308.17 298.484H1310.28V347H1308.17V298.484ZM1320.83 298.484H1322.94V336.453H1339.81V338.562H1322.94V340.672H1339.81V342.781H1322.94V344.891H1339.81V347H1320.83V298.484ZM1316.61 298.484H1318.72V347H1316.61V298.484ZM1312.39 298.484H1314.5V347H1312.39V298.484ZM1365.45 332.762L1366.29 330.652H1373.5L1374.35 332.762H1365.45ZM1363.8 336.98L1364.62 334.871H1375.14L1376.05 336.98H1363.8ZM1362.16 341.199L1362.98 339.09H1376.81L1377.69 341.199H1362.16ZM1345.03 347H1342.74L1361.93 298.484H1364.21L1383.38 347H1381.12L1363.07 301.326L1345.03 347ZM1363.34 306.336L1364.54 309.031L1349.54 347H1347.28L1363.34 306.336ZM1365.68 311.902L1366.79 314.803L1354.11 347H1351.82L1365.68 311.902ZM1367.91 317.703L1369.02 320.662L1358.62 347H1356.36L1367.91 317.703ZM1397 347H1394.71L1375.55 298.484H1377.81L1397 347ZM1373.27 298.484L1392.46 347H1390.2L1371.01 298.484H1373.27ZM1368.73 298.484L1387.92 347H1385.63L1366.47 298.484H1368.73ZM1435.14 323.65L1433.03 320.164V298.484H1435.14V323.65ZM1439.36 330.564L1437.25 327.02V298.484H1439.36V330.564ZM1443.58 337.566L1441.47 333.992V298.484H1443.58V337.566ZM1413.35 321.834L1415.46 325.32V347H1413.35V321.834ZM1409.13 314.92L1411.24 318.465V347H1409.13V314.92ZM1404.91 307.918L1407.02 311.492V347H1404.91V307.918ZM1405.64 298.484H1408.1L1437.93 347H1435.46L1405.64 298.484ZM1410.62 298.484H1413.11L1442.91 347H1440.39L1410.62 298.484ZM1415.57 298.484H1418.03L1445.69 343.572V298.484H1447.8V347C1447.8 347 1446.97 347 1445.31 347L1415.57 298.484ZM1402.8 301.912V347H1400.69V298.484C1400.69 298.484 1401.53 298.484 1403.21 298.484L1432.95 347H1430.51L1402.8 301.912ZM1466.02 334.344V311.141C1466.02 311.141 1470.82 311.141 1480.41 311.141C1482.73 311.141 1484.72 312.283 1486.38 314.568C1488.06 316.834 1488.9 319.559 1488.9 322.742C1488.9 325.945 1488.06 328.68 1486.38 330.945C1484.72 333.211 1482.73 334.344 1480.41 334.344H1466.02ZM1468.13 332.234H1480.41C1482.14 332.234 1483.63 331.307 1484.86 329.451C1486.11 327.596 1486.73 325.359 1486.73 322.742C1486.73 320.105 1486.11 317.869 1484.86 316.033C1483.63 314.178 1482.14 313.25 1480.41 313.25H1468.13V332.234ZM1463.91 336.453H1480.41C1483.32 336.453 1485.82 335.115 1487.91 332.439C1490.02 329.744 1491.07 326.512 1491.07 322.742C1491.07 320.262 1490.58 317.967 1489.61 315.857C1488.65 313.748 1487.35 312.088 1485.71 310.877C1484.09 309.646 1482.32 309.031 1480.41 309.031H1463.91V336.453ZM1461.8 338.562V306.922H1480.41C1482.69 306.922 1484.82 307.625 1486.79 309.031C1488.77 310.438 1490.33 312.361 1491.48 314.803C1492.65 317.225 1493.24 319.871 1493.24 322.742C1493.24 325.594 1492.65 328.24 1491.48 330.682C1490.33 333.123 1488.77 335.047 1486.79 336.453C1484.82 337.859 1482.69 338.562 1480.41 338.562H1461.8ZM1459.69 340.672H1480.41C1483.08 340.672 1485.56 339.871 1487.85 338.27C1490.15 336.668 1491.99 334.49 1493.36 331.736C1494.72 328.982 1495.41 325.984 1495.41 322.742C1495.41 319.52 1494.72 316.531 1493.36 313.777C1491.99 311.004 1490.15 308.816 1487.85 307.215C1485.54 305.613 1483.06 304.812 1480.41 304.812H1459.69V340.672ZM1457.58 342.781V302.703H1480.41C1483.45 302.703 1486.29 303.602 1488.93 305.398C1491.57 307.176 1493.67 309.607 1495.23 312.693C1496.79 315.779 1497.57 319.129 1497.57 322.742C1497.57 326.355 1496.79 329.705 1495.23 332.791C1493.67 335.877 1491.57 338.318 1488.93 340.115C1486.29 341.893 1483.45 342.781 1480.41 342.781H1457.58ZM1455.47 344.891H1480.41C1482.96 344.891 1485.44 344.305 1487.82 343.133C1490.2 341.961 1492.26 340.389 1494 338.416C1495.74 336.443 1497.12 334.09 1498.16 331.355C1499.21 328.602 1499.74 325.73 1499.74 322.742C1499.74 319.754 1499.21 316.893 1498.16 314.158C1497.12 311.424 1495.74 309.07 1494 307.098C1492.26 305.105 1490.2 303.523 1487.82 302.352C1485.44 301.18 1482.96 300.594 1480.41 300.594H1455.47V344.891ZM1480.41 347H1453.37V298.484H1480.41C1484.21 298.484 1487.77 299.568 1491.07 301.736C1494.37 303.904 1497 306.854 1498.95 310.584C1500.92 314.314 1501.91 318.367 1501.91 322.742C1501.91 326.023 1501.32 329.168 1500.15 332.176C1499 335.164 1497.46 337.742 1495.52 339.91C1493.59 342.078 1491.29 343.807 1488.64 345.096C1486 346.365 1483.26 347 1480.41 347Z" fill="black"/>
<line x1="1584" y1="727.5" x2="1157" y2="726.5" stroke="black"/>
<rect x="4.5" y="0.5" width="2198" height="1601" stroke="black"/>
</g>
<defs>
<filter id="filter0_d_1:3" x="0" y="0" width="2207" height="1610" filterUnits="userSpaceOnUse" color-interpolation-filters="sRGB">
<feFlood flood-opacity="0" result="BackgroundImageFix"/>
<feColorMatrix in="SourceAlpha" type="matrix" values="0 0 0 0 0 0 0 0 0 0 0 0 0 0 0 0 0 0 127 0" result="hardAlpha"/>
<feOffset dy="4"/>
<feGaussianBlur stdDeviation="2"/>
<feComposite in2="hardAlpha" operator="out"/>
<feColorMatrix type="matrix" values="0 0 0 0 0 0 0 0 0 0 0 0 0 0 0 0 0 0 0.25 0"/>
<feBlend mode="normal" in2="BackgroundImageFix" result="effect1_dropShadow_1:3"/>
<feBlend mode="normal" in="SourceGraphic" in2="effect1_dropShadow_1:3" result="shape"/>
</filter>
<filter id="filter1_d_1:3" x="1050.71" y="116" width="630.018" height="974.5" filterUnits="userSpaceOnUse" color-interpolation-filters="sRGB">
<feFlood flood-opacity="0" result="BackgroundImageFix"/>
<feColorMatrix in="SourceAlpha" type="matrix" values="0 0 0 0 0 0 0 0 0 0 0 0 0 0 0 0 0 0 127 0" result="hardAlpha"/>
<feOffset dy="4"/>
<feGaussianBlur stdDeviation="2"/>
<feComposite in2="hardAlpha" operator="out"/>
<feColorMatrix type="matrix" values="0 0 0 0 0 0 0 0 0 0 0 0 0 0 0 0 0 0 0.25 0"/>
<feBlend mode="normal" in2="BackgroundImageFix" result="effect1_dropShadow_1:3"/>
<feBlend mode="normal" in="SourceGraphic" in2="effect1_dropShadow_1:3" result="shape"/>
</filter>
</defs>
</svg>
